# xmcd
#
# Track frame offsets:
#	150
#	18605
#	41060
#	59367
#	76615
#	93752
#	110522
#	131412
#	150135
#	167130
#	188617
#	208310
#	228017
#
# Disc length: 3314 seconds
#
# Revision: 0
# Processed by: cddbd v1.5.2PL0 Copyright (c) Steve Scherf et al.
# Submitted via: dBpowerAMP V4.0
#
DISCID=960cf00d
DTITLE=Miss Laura - Miss Laura
DYEAR=1996
DGENRE=Country
TTITLE0=Day O
TTITLE1=Pau Que Nasce Torto/ Melo do Tchan
TTITLE2=Havah Nagilah
TTITLE3=Uma Casa Portuguesa
TTITLE4=Perigosa
TTITLE5=Quando
TTITLE6=Let It Be
TTITLE7=Mente e Corpo
TTITLE8=Mosca a Sopa
TTITLE9=Eu Nasci Há 10 000 Anos Atrás
TTITLE10=Bue Da Bom
TTITLE11=Como Eu Quero
TTITLE12=Conquista da Mulher
EXTD=
EXTT0=
EXTT1=
EXTT2=
EXTT3=
EXTT4=
EXTT5=
EXTT6=
EXTT7=
EXTT8=
EXTT9=
EXTT10=
EXTT11=
EXTT12=
PLAYORDER=
